<svg id="Layer_1" data-name="Layer 1" xmlns="http://www.w3.org/2000/svg" xmlns:xlink="http://www.w3.org/1999/xlink" viewBox="0 0 1920 1080"><defs><style>.cls-1,.cls-4{fill:none;}.cls-2{clip-path:url(#clip-path);}.cls-3{fill:#c6c6c6;}.cls-4{stroke-miterlimit:10;stroke-width:50px;stroke:url(#Degradado_sin_nombre_42);}.cls-5{fill:url(#Degradado_sin_nombre_42-2);}.cls-6{fill:url(#Degradado_sin_nombre_42-3);}.cls-7{fill:url(#Degradado_sin_nombre_42-4);}.cls-8{fill:url(#Degradado_sin_nombre_42-5);}.cls-9{fill:url(#Degradado_sin_nombre_43);}.cls-10{fill:url(#Degradado_sin_nombre_43-2);}.cls-11{fill:url(#Degradado_sin_nombre_43-3);}</style><clipPath id="clip-path"><rect class="cls-1" width="1920" height="1080"/></clipPath><linearGradient id="Degradado_sin_nombre_42" x1="1308.29" y1="856.9" x2="1989.35" y2="856.9" gradientTransform="translate(1797.82 632.3) rotate(173.33)" gradientUnits="userSpaceOnUse"><stop offset="0" stop-color="#ff4a72"/><stop offset="1" stop-color="#007dff"/></linearGradient><linearGradient id="Degradado_sin_nombre_42-2" x1="1006.39" y1="-432.72" x2="860.16" y2="-417.14" gradientTransform="matrix(-0.63, -0.78, 0.78, -0.63, 1139.6, 1247.4)" xlink:href="#Degradado_sin_nombre_42"/><linearGradient id="Degradado_sin_nombre_42-3" x1="-49.61" y1="802.67" x2="284.87" y2="1209.9" gradientTransform="matrix(1, 0, 0, 1, 0, 0)" xlink:href="#Degradado_sin_nombre_42"/><linearGradient id="Degradado_sin_nombre_42-4" x1="1478.98" y1="189.71" x2="1530.62" y2="347.07" gradientTransform="matrix(0.72, -0.69, 0.69, 0.72, 480.56, 1164.9)" xlink:href="#Degradado_sin_nombre_42"/><linearGradient id="Degradado_sin_nombre_42-5" x1="1660.67" y1="-75.94" x2="1987.57" y2="322.06" gradientTransform="matrix(0.84, -0.55, 0.55, 0.84, 274.56, 1070.96)" xlink:href="#Degradado_sin_nombre_42"/><linearGradient id="Degradado_sin_nombre_43" x1="1571" y1="907.52" x2="1658.81" y2="907.52" gradientUnits="userSpaceOnUse"><stop offset="0" stop-color="#ffb541"/><stop offset="1" stop-color="#d500c8"/></linearGradient><linearGradient id="Degradado_sin_nombre_43-2" x1="1595" y1="966" x2="1751" y2="966" xlink:href="#Degradado_sin_nombre_43"/><linearGradient id="Degradado_sin_nombre_43-3" x1="1668" y1="893" x2="1824" y2="893" xlink:href="#Degradado_sin_nombre_43"/></defs><title>Artboard 1</title><g class="cls-2"><g id="User_Acquisitions" data-name="User Acquisitions"><path class="cls-3" d="M1391.56,80.89h-62a1,1,0,0,0-1,1v51a1,1,0,0,0,1,1h4a12,12,0,0,0,24,0h6.1a12,12,0,0,0,23.9,0h4a1,1,0,0,0,1-1v-51A1,1,0,0,0,1391.56,80.89Zm-61,2h60v6h-60Zm12,48v-1a3,3,0,1,1,6,0v1a3,3,0,0,1-6,0Zm-3,10,.32-1a5.94,5.94,0,0,1,11.26,0l.37,1A10,10,0,0,1,1339.61,140.89Zm13.51-1.5a7.88,7.88,0,0,0-4.27-4.79c1.71-1.51,1.71-3.17,1.71-4.71a5,5,0,0,0-10,0c0,1.64,0,3.21,1.71,4.73a7.88,7.88,0,0,0-4.27,4.79,10,10,0,1,1,15.12,0Zm7.44-42.5a10,10,0,0,1,7.56,16.52,7.88,7.88,0,0,0-4.27-4.79c1.71-1.53,1.71-3.19,1.71-4.73a5,5,0,0,0-10,0c0,1.64,0,3.21,1.71,4.73a7.88,7.88,0,0,0-4.27,4.79,10,10,0,0,1,7.56-16.52ZM1354.7,115c-.14-.1-.14.06.23-1a5.94,5.94,0,0,1,11.26,0c.37,1.09.37.94.23,1A10,10,0,0,1,1354.7,115Zm2.86-10.1v-1a3,3,0,0,1,6,0v1a3,3,0,1,1-6,0Zm8.36,12.72,3,5.32a12,12,0,0,0-5.27,9h-6.09a12,12,0,0,0-5.27-9l3-5.32A11.9,11.9,0,0,0,1365.92,117.61Zm6.64,13.28v-1a3,3,0,1,1,6,0v1a3,3,0,0,1-6,0Zm-3,10,.32-1a5.94,5.94,0,0,1,11.26,0l.42,1a10,10,0,0,1-12,0Zm13.51-1.5a7.88,7.88,0,0,0-4.27-4.79c1.76-1.51,1.76-3.17,1.76-4.71a5,5,0,0,0-10,0c0,1.64,0,3.21,1.71,4.73a7.88,7.88,0,0,0-4.27,4.79,10,10,0,1,1,15.12,0Zm4.49-7.5a12,12,0,0,0-13-10.94,11.7,11.7,0,0,0-3.9,1l-3-5.38c9.31-6.83,4.42-21.69-7.13-21.69s-16.46,14.84-7.08,21.69l-3,5.38a12,12,0,0,0-16.87,9.93h-3v-41h60v41Z"/><path class="cls-3" d="M1334.56,84.89a1,1,0,1,0,1,1A1,1,0,0,0,1334.56,84.89Z"/><path class="cls-3" d="M1339.56,84.89a1,1,0,1,0,1,1A1,1,0,0,0,1339.56,84.89Z"/><path class="cls-3" d="M1344.56,84.89a1,1,0,1,0,1,1A1,1,0,0,0,1344.56,84.89Z"/></g><g id="Time_Management" data-name="Time Management"><path class="cls-3" d="M143,131a20,20,0,1,0,20,20A20,20,0,0,0,143,131Zm0,38a18,18,0,1,1,18-18A18,18,0,0,1,143,169Z"/><path class="cls-3" d="M144,137v-2a1,1,0,0,0-2,0v2a1,1,0,0,0,2,0Z"/><path class="cls-3" d="M142,165v2a1,1,0,0,0,2,0v-2a1,1,0,0,0-2,0Z"/><path class="cls-3" d="M157,152h2a1,1,0,0,0,0-2h-2a1,1,0,0,0,0,2Z"/><path class="cls-3" d="M129,150h-2a1,1,0,0,0,0,2h2a1,1,0,0,0,0-2Z"/><path class="cls-3" d="M134.5,136.28a1,1,0,1,0,1.31.35A1,1,0,0,0,134.5,136.28Z"/><path class="cls-3" d="M150.5,164a1,1,0,1,0,1.31.35A1,1,0,0,0,150.5,164Z"/><path class="cls-3" d="M150.5,138a1,1,0,1,0-.35-1.31A1,1,0,0,0,150.5,138Z"/><path class="cls-3" d="M135.5,164a1,1,0,1,0,.35,1.31A1,1,0,0,0,135.5,164Z"/><path class="cls-3" d="M157.36,143.87a1,1,0,1,0-1.37-.37A1,1,0,0,0,157.36,143.87Z"/><path class="cls-3" d="M128.64,158.13a1,1,0,1,0,1.37.37,1,1,0,0,0-1.37-.37Z"/><path class="cls-3" d="M156.36,159.87a1,1,0,1,0,1-1.74h0a1,1,0,0,0-1,1.74Z"/><path class="cls-3" d="M129.64,142.13a1,1,0,1,0,.37,1.37A1,1,0,0,0,129.64,142.13Z"/><path class="cls-3" d="M151,150c-8.52,0-5.4.21-7-.72V141a1,1,0,0,0-2,0c0,11,.25,7.34-.72,9H140a1,1,0,0,0,0,2h1.28a1.91,1.91,0,0,0,.72.72V154a1,1,0,0,0,2,0v-1.28c1.63-.95-1.55-.72,7-.72a1,1,0,0,0,0-2Z"/><path class="cls-3" d="M173.85,159.57,169.34,157a27.33,27.33,0,0,0,0-11.94l4.51-2.6a1,1,0,0,0,.36-1.37h0l-7-12.12a1,1,0,0,0-1.36-.37l-4.52,2.61a27.21,27.21,0,0,0-10.33-6V120a1,1,0,0,0-1-1H136a1,1,0,0,0-1,1v5.21a27.21,27.21,0,0,0-10.33,6l-4.52-2.64a1,1,0,0,0-1.36.37l-7,12.12a1,1,0,0,0,.36,1.37h0l4.51,2.57a27.3,27.3,0,0,0,0,12l-4.51,2.6a1,1,0,0,0-.36,1.37h0l7,12.12a1,1,0,0,0,1.36.37l4.52-2.61a27.21,27.21,0,0,0,10.33,6V182a1,1,0,0,0,1,1h14a1,1,0,0,0,1-1v-5.21a27.21,27.21,0,0,0,10.33-6l4.52,2.61a1,1,0,0,0,1.36-.37l7-12.12A1,1,0,0,0,173.85,159.57ZM166,171.2l-4.3-2.49a1,1,0,0,0-1.2.15,25.12,25.12,0,0,1-10.75,6.22,1,1,0,0,0-.75.92v5H137v-5a1,1,0,0,0-.73-1,25.12,25.12,0,0,1-10.75-6.22,1,1,0,0,0-1.2-.15L120,171.2l-6-10.4,4.29-2.47a1,1,0,0,0,.47-1.12,25.11,25.11,0,0,1,0-12.42,1,1,0,0,0-.47-1.12L114,141.2l6-10.4,4.3,2.49a1,1,0,0,0,1.2-.15,25.13,25.13,0,0,1,10.77-6.22A1,1,0,0,0,137,126v-5h12v5a1,1,0,0,0,.73,1,25.12,25.12,0,0,1,10.75,6.22,1,1,0,0,0,1.2.15L166,130.8l6,10.4c-7.43,4.29-4,1.09-4,9.8s-3.45,5.51,4,9.8Z"/></g><g id="Ecommerce"><path class="cls-3" d="M1010.89,109,950.2,96.34a1,1,0,0,0-1.19.77L938.59,147a1,1,0,0,0,.77,1.18l13.71,2.86L951.84,157a5,5,0,0,0,3.87,5.92l23.49,4.91a5,5,0,0,0,5.92-3.87l1.23-5.88,13.7,2.86a1,1,0,0,0,1.19-.77l10.42-49.92A1,1,0,0,0,1010.89,109ZM950.77,98.5l58.73,12.27-1.23,5.87-58.73-12.27Zm32.39,65a3,3,0,0,1-3.55,2.32l-23.49-4.91a3,3,0,0,1-2.32-3.55L962,118.21a3,3,0,0,1,3.55-2.33l23.5,4.91a3,3,0,0,1,2.32,3.55Zm3.6-7.43,6.54-31.32a5,5,0,0,0-3.87-5.92l-23.5-4.9A5,5,0,0,0,960,117.8l-6.55,31.32-12.72-2.65,8.38-40.14,58.73,12.27-8.38,40.13Z"/><path class="cls-3" d="M954.27,101.28a1,1,0,1,0,.78,1.18A1,1,0,0,0,954.27,101.28Z"/><path class="cls-3" d="M959.17,102.3a1,1,0,1,0,.77,1.18A1,1,0,0,0,959.17,102.3Z"/><path class="cls-3" d="M964.06,103.32a1,1,0,0,0-.41,2,1,1,0,0,0,1.19-.78A1,1,0,0,0,964.06,103.32Z"/><path class="cls-3" d="M988.61,122.75c-5.3-1.11-5.38-1.31-5.88-.67a2.59,2.59,0,0,1-2.6.94l-7.36-1.54a2.59,2.59,0,0,1-2-1.9c-.2-.78-.43-.65-5.65-1.74a1,1,0,0,0-1.19.78l-8.18,39.15a1,1,0,0,0,.78,1.19l23.49,4.9a1,1,0,0,0,1.19-.77l8.17-39.16A1,1,0,0,0,988.61,122.75Zm-9.16,38.95-21.53-4.5,7.77-37.2,3.35.71a4.6,4.6,0,0,0,3.32,2.73l7.37,1.54a4.56,4.56,0,0,0,4.13-1.18l3.36.7Z"/><path class="cls-3" d="M970.33,132a1,1,0,0,0-.82-1l-2.93-.61a1,1,0,1,0-.41,2l2.14.45v8.85c-1.36.85-2.3,1.23-2.55,2.47a2.41,2.41,0,0,0,.61,2.17A2,2,0,0,0,970,148a1.77,1.77,0,0,0,.15-.46l3.91.82a2,2,0,1,0,2.37-1.55c-8.69-1.82-8.84-1.67-8.73-2.23,0-.23,0-.19,1.78-1.27l8.34,1.75a1,1,0,0,0,1.13-.51c3.57-6.81,3.7-6.71,3.41-7.33s.15-.38-12-2.92Zm9.59,6.29-2.42,4.6-7.2-1.5,0-5.1Z"/></g><g id="Cloud_Computing" data-name="Cloud Computing"><path class="cls-3" d="M580.59,112.56l10.24-4,1.09,2.79-16.76,6.57a1,1,0,0,0-.56,1.3l1.46,3.72a1,1,0,1,0,1.86-.73l-1.1-2.79,16.76-6.57a1,1,0,0,0,.57-1.3l-1.46-3.72,1.86-.73,2.92,7.44a1,1,0,1,0,1.86-.73l-2.92-7.45,1.86-.73,1.46,3.73a1,1,0,0,0,1.3.56l16.76-6.57,1.09,2.8a1,1,0,0,0,1.3.56,1,1,0,0,0,.56-1.29l-1.46-3.73a1,1,0,0,0-1.29-.56l-16.76,6.57-1.09-2.8,12.1-4.74a9,9,0,0,0-3.59-17.37A8,8,0,0,0,598,78.86l-.09,0a15,15,0,0,0-26.33,13.54,11,11,0,0,0,9,20.12Zm-7.31-18.62a1,1,0,0,0,.57-1.29,13,13,0,0,1,23-11.88,1,1,0,0,0,1.37.3,6,6,0,0,1,8.27,1.9,5.53,5.53,0,0,1,.54,1.09,1,1,0,0,0,1.11.79,7,7,0,0,1,3.4,13.44L579.85,110.7a9,9,0,0,1-6.57-16.76Z"/><path class="cls-3" d="M606.58,113.11,591.68,119a1,1,0,0,0-.56,1.3l4.38,11.17a1,1,0,0,0,1.29.56l4.66-1.82.73,1.86-.93.37a1,1,0,1,0,.73,1.86l7.45-2.92A1,1,0,0,0,610,130a1,1,0,0,0-1.29-.56l-.93.36L607,128l4.65-1.83a1,1,0,0,0,.57-1.29l-4.38-11.17A1,1,0,0,0,606.58,113.11Zm-.68,17.45-1.86.73-.73-1.86,1.86-.73Zm4.13-5.91-13,5.11-3.66-9.31,13-5.11Z"/><path class="cls-3" d="M628,104.71l-14.89,5.84a1,1,0,0,0-.57,1.3L616.91,123a1,1,0,0,0,1.3.57l4.65-1.83.73,1.86-.93.37a1,1,0,0,0,.73,1.86l7.45-2.92a1,1,0,1,0-.73-1.86l-.93.36-.73-1.86,4.65-1.82a1,1,0,0,0,.57-1.3l-4.38-11.17A1,1,0,0,0,628,104.71Zm-.67,17.45-1.87.73-.73-1.86,1.87-.73Zm4.12-5.91-13,5.11-3.65-9.31,13-5.11Z"/><path class="cls-3" d="M585.17,121.51l-14.9,5.84a1,1,0,0,0-.56,1.29l4.38,11.17a1,1,0,0,0,1.29.57l4.66-1.82.73,1.86-.93.36a1,1,0,1,0,.73,1.86l7.44-2.92a1,1,0,1,0-.73-1.86l-.93.37-.73-1.87,4.66-1.82a1,1,0,0,0,.56-1.3l-4.38-11.17A1,1,0,0,0,585.17,121.51ZM584.49,139l-1.86.73-.73-1.86,1.86-.73Zm4.13-5.92-13,5.11-3.65-9.31,13-5.11Z"/></g><g class="cls-2"><g id="Cloud_Data" data-name="Cloud Data"><path class="cls-3" d="M1312,562h-1V526a4,4,0,0,0-4-4c-10.35,0-6.08.24-8.91-.85a6,6,0,0,0-6.09-5.38,10.88,10.88,0,0,0-21.25,2.17,8,8,0,0,0-6.06,4.06H1259a4,4,0,0,0-4,4v36h-1a3,3,0,0,0-3,3v2a5,5,0,0,0,5,5h54a5,5,0,0,0,5-5v-2A3,3,0,0,0,1312,562Zm-7-34v30h-44V528h2.92a8.09,8.09,0,0,0,7.79,6H1277v9h-10a1,1,0,0,0-1,1v5.18a3,3,0,1,0,2,0V545h10a1,1,0,0,0,1-1V534h3v15.18a3,3,0,1,0,2,0V534h3v10a1,1,0,0,0,1,1h10v4.18a3,3,0,1,0,2,0V544a1,1,0,0,0-1-1h-10v-9h6.71a6.66,6.66,0,0,0,6.61-6Zm-38,23a1,1,0,1,1-1,1A1,1,0,0,1,1267,551Zm16,0a1,1,0,1,1-1,1A1,1,0,0,1,1283,551Zm16,0a1,1,0,1,1-1,1A1,1,0,0,1,1299,551Zm-27.29-31.12a1,1,0,0,0,1-1,8.88,8.88,0,0,1,17.57-1.82,1,1,0,0,0,1.17.78A3.93,3.93,0,0,1,1296,521a4.11,4.11,0,0,1,.07.78,1,1,0,0,0,.75,1.11c5.27,1.35,4.27,9.14-1.15,9.14h-24a6.06,6.06,0,1,1,0-12.12ZM1257,526a2,2,0,0,1,2-2h4.89a8.42,8.42,0,0,0-.24,2H1260a1,1,0,0,0-1,1v32a1,1,0,0,0,1,1h46a1,1,0,0,0,1-1V527a1,1,0,0,0-1-1h-3.8a6.61,6.61,0,0,0-.78-2H1307a2,2,0,0,1,2,2v36h-52Zm34.13,38-.67,1h-14.92l-.67-1Zm21.87,3a3,3,0,0,1-3,3h-54a3,3,0,0,1-3-3v-2a1,1,0,0,1,1-1h18.46l1.71,2.55c.42.64-.41.45,16.83.45.69,0,.74-.3,2.54-3H1312a1,1,0,0,1,1,1Z"/></g><g id="Project_Management" data-name="Project Management"><path class="cls-3" d="M1024,371.94a5.67,5.67,0,1,0,3.14,7.38h0A5.69,5.69,0,0,0,1024,371.94Zm-3.5,8.66a3.67,3.67,0,1,1,4.78-2h0A3.67,3.67,0,0,1,1020.5,380.6Z"/><path class="cls-3" d="M1033.65,385.77l-1.66-2.12a11.58,11.58,0,0,0,1.64-4.06l2.67-.38a1,1,0,0,0,.85-1.13l-.84-5.94a1,1,0,0,0-1.13-.85h0l-1.28.18,8.68-21.5a5,5,0,0,0-2.76-6.51l-9.42-3.8,1.24-6a6,6,0,0,0-3.62-6.79l-12.67-5.11a6,6,0,0,0-7.31,2.36l-3.31,5.21-9.42-3.8a5,5,0,0,0-6.51,2.76l-12.73,31.53a5,5,0,0,0,2.76,6.51l27.95,11.28c.91,6.44.08,5.78,4.46,5.17a12.36,12.36,0,0,0,2.69,3.45l-1,2.49a1,1,0,0,0,.55,1.31l5.56,2.24a1,1,0,0,0,1.3-.55l1-2.49a12.31,12.31,0,0,0,4.34-.62l1.65,2.12a1,1,0,0,0,1.41.18h0l4.73-3.7A1,1,0,0,0,1033.65,385.77Zm-23.93-60.62a4,4,0,0,1,4.88-1.58l12.67,5.12a4,4,0,0,1,2.42,4.52l-1.21,5.67-1.55-.62.94-4.52a3,3,0,0,0-1.86-3.4l-11.69-4.73a3,3,0,0,0-3.71,1.16l-2.41,3.92-1.58-.63Zm15.33,12.35-15-6.05,2.26-3.59a1,1,0,0,1,1.24-.39l11.73,4.74a1,1,0,0,1,.62,1.14ZM990.66,329a3,3,0,0,1,3.9-1.66l44.51,18a3,3,0,0,1,1.66,3.9l-4.12,10.2a3,3,0,0,1-3.91,1.66l-18.54-7.49,1.12-2.78a1,1,0,0,0-.55-1.3l-5.56-2.25a1,1,0,0,0-1.31.55l-1.12,2.79-18.54-7.5a3,3,0,0,1-1.66-3.9Zm18.68,20.49,3.71,1.5-1.49,3.71a2,2,0,0,1-3.71-1.5Zm-31.42,11L985,342.91c1.18,2,.55,1.3,21,9.54a4,4,0,1,0,7.42,3c20.06,8.1,19.5,8.26,21.7,7.68l-3.11,7.7a12,12,0,0,0-2.19-2.59l1-2.52a1,1,0,0,0-.55-1.3l-5.57-2.25a1,1,0,0,0-1.3.55l-1,2.5a12.08,12.08,0,0,0-4.34.61l-1.66-2.12a1,1,0,0,0-1.4-.18h0c-6.3,4.91-6,3.66-3.24,7.22a11.55,11.55,0,0,0-1.64,4.07c-2.92.4-2.88.32-3.21.65l-27.34-11A3,3,0,0,1,977.92,360.53Zm50.39,28.14c-1.49-1.9-1.78-2.57-2.66-2.21-3.81,1.51-5.32-.09-5.88,1.3l-.91,2.24-3.7-1.49c.9-2.25,1.34-2.84.59-3.42-3.24-2.51-2.58-4.64-4.07-4.44l-2.4.34-.56-4c2.4-.33,3.13-.24,3.26-1.2a9.85,9.85,0,0,1,1.83-4.52c.6-.83-.15-1.39-1.51-3.12l3.15-2.46,1.48,1.92c.91,1.17,2-.8,6-.36.95.1,1-.66,2-2.87l3.7,1.49-.9,2.25c-.56,1.37,1.7,1.34,3.36,5,.39.87,1.08.59,3.45.26l.56,3.95c-4.5.6-2.49,0-3.91,3.55s-2.48,1.69.31,5.26Z"/></g><g id="Work_Flow" data-name="Work Flow"><path class="cls-3" d="M1651.31,579h-8a1,1,0,0,0,0,2h8a1,1,0,0,0,0-2Z"/><path class="cls-3" d="M1651.31,583h-8a1,1,0,0,0,0,2h8a1,1,0,0,0,0-2Z"/><path class="cls-3" d="M1651.31,587h-8a1,1,0,0,0,0,2h8a1,1,0,0,0,0-2Z"/><path class="cls-3" d="M1651.31,591h-8a1,1,0,0,0,0,2h8a1,1,0,0,0,0-2Z"/><path class="cls-3" d="M1628.31,579h-8a1,1,0,0,0-1,1v4a1,1,0,0,0,1,1h8a1,1,0,0,0,1-1v-4A1,1,0,0,0,1628.31,579Zm-1,4h-6v-2h6Z"/><path class="cls-3" d="M1628.31,587h-8a1,1,0,0,0-1,1v4a1,1,0,0,0,1,1h8a1,1,0,0,0,1-1v-4A1,1,0,0,0,1628.31,587Zm-1,4h-6v-2h6Z"/><path class="cls-3" d="M1666.63,627.72c-.51,2.87-.86,3.58-.16,4.09s1,.09,3.84-1.41c2.92,1.6,2.89,1.6,3.25,1.6a1,1,0,0,0,1-1,1.27,1.27,0,0,0,0-.2l-.55-3.1,2.3-2.18a1,1,0,0,0,0-1.41,1,1,0,0,0-.57-.3l-3.12-.43-1.43-2.84a1,1,0,0,0-1.34-.46.94.94,0,0,0-.46.46L1668,623.4c-2.85.39-3.66.27-3.93,1.11S1664.31,625.51,1666.63,627.72Zm3.68-4.43c1.09,2.24.62,1.89,3.08,2.24-1.81,1.74-1.61,1.17-1.18,3.62-2.21-1.18-1.59-1.18-3.8,0,.43-2.46.62-1.89-1.18-3.62C1669.71,625.18,1669.22,625.53,1670.31,623.29Z"/><path class="cls-3" d="M1671.31,606v-8h7a1,1,0,0,0,1-1V575a1,1,0,0,0-1-1h-16a1,1,0,0,0-1,1v10h-5V575a1,1,0,0,0-1-1h-16a1,1,0,0,0-1,1v10h-5V575a1,1,0,0,0-1-1h-16a1,1,0,0,0-1,1v22a1,1,0,0,0,1,1h16a1,1,0,0,0,1-1V587h5v10a1,1,0,0,0,1,1h16a1,1,0,0,0,1-1V587h5v10a1,1,0,0,0,1,1h7v7h-45a1,1,0,0,0-1,1v8h-7a1,1,0,0,0-1,1v22a1,1,0,0,0,1,1h16a1,1,0,0,0,1-1V627h5v10a1,1,0,0,0,1,1h16a1,1,0,0,0,1-1V627h5v10a1,1,0,0,0,1,1h16a1,1,0,0,0,1-1V615a1,1,0,0,0-1-1h-16a1,1,0,0,0-1,1v10h-5V615a1,1,0,0,0-1-1h-16a1,1,0,0,0-1,1v10h-5V615a1,1,0,0,0-1-1h-7v-7h45A1,1,0,0,0,1671.31,606Zm-40-10h-14V576h14Zm23,0h-14V576h14Zm9-20h14v20h-14Zm0,40h14v20h-14Zm-23,0h14v20h-14Zm-9,20h-14V616h14Z"/><path class="cls-3" d="M1647.31,601a1,1,0,1,0-1-1A1,1,0,0,0,1647.31,601Z"/><path class="cls-3" d="M1647.31,604a1,1,0,1,0-1-1A1,1,0,0,0,1647.31,604Z"/><path class="cls-3" d="M1647.31,608a1,1,0,1,0,1,1A1,1,0,0,0,1647.31,608Z"/><path class="cls-3" d="M1647.31,611a1,1,0,1,0,1,1A1,1,0,0,0,1647.31,611Z"/><path class="cls-3" d="M1671.31,593v-5.1a5,5,0,1,0-2,0V593a1,1,0,0,0,2,0Zm-4-10a3,3,0,1,1,3,3A3,3,0,0,1,1667.31,583Z"/><path class="cls-3" d="M1643.31,628h8a1,1,0,0,0,1-1v-8a1,1,0,0,0-1-1h-8a1,1,0,0,0-1,1v8A1,1,0,0,0,1643.31,628Zm1-8h6v6h-6Z"/><path class="cls-3" d="M1643.31,633h8a1,1,0,0,0,0-2h-8a1,1,0,0,0,0,2Z"/><path class="cls-3" d="M1623.31,626v4a1,1,0,0,0,2,0v-4a1,1,0,0,0-2,0Z"/><path class="cls-3" d="M1619.31,623v7a1,1,0,0,0,2,0v-7a1,1,0,0,0-2,0Z"/><path class="cls-3" d="M1629.31,630v-9a1,1,0,0,0-2,0v9a1,1,0,0,0,2,0Z"/></g><g id="User_Experience" data-name="User Experience"><path class="cls-3" d="M1740,870a1,1,0,1,0-1,1A1,1,0,0,0,1740,870Z"/><path class="cls-3" d="M1748,870a1,1,0,1,0-1,1A1,1,0,0,0,1748,870Z"/><path class="cls-3" d="M1774,878h-11v-7a5,5,0,0,0-5-5h-30a5,5,0,0,0-5,5v7h-8a1,1,0,0,0-1,1v18a1,1,0,0,0,1,1h8v8h-11a1,1,0,0,0-1,1v12a1,1,0,0,0,1,1h11v5a5,5,0,0,0,5,5h30a5,5,0,0,0,5-5v-4.41c10.67-3.05,10.58-18.16,0-21.16V894h11a1,1,0,0,0,1-1V879A1,1,0,0,0,1774,878Zm-49-7a3,3,0,0,1,3-3h30a3,3,0,0,1,3,3v7h-2v-7a1,1,0,0,0-1-1h-7a1,1,0,0,0-1,1,1,1,0,0,1-1,1h-12a1,1,0,0,1-1-1,1,1,0,0,0-1-1h-7a1,1,0,0,0-1,1v7h-2Zm21,7a1,1,0,0,0-1,1v14a1,1,0,0,0,1,1h11v5.43c-10.54,3-10.65,17.89-.22,21.09.31.09.22-.37.22,3.48h-28v-4h13a1,1,0,0,0,1-1V907a1,1,0,0,0-1-1h-13v-8h8a1,1,0,0,0,1-1V879a1,1,0,0,0-1-1h-8v-6h5.17a3,3,0,0,0,2.83,2h12a3,3,0,0,0,2.83-2H1757v6Zm16.64,30.18a2.64,2.64,0,0,1-5.28,0h0v-.91a2.64,2.64,0,0,1,5.28,0Zm2.36,8.27.27.8a8.93,8.93,0,0,1-10.61,0l.28-.81a5.31,5.31,0,0,1,10.06,0ZM1716,880h20v16h-20Zm9,18h2v8h-2Zm-12,10h28v10h-28Zm45,20h-30a3,3,0,0,1-3-3v-5h2v5a1,1,0,0,0,1,1h30a1,1,0,0,0,1-1v-4a9.55,9.55,0,0,0,2,0v4A3,3,0,0,1,1758,928Zm8.91-12.24a7.23,7.23,0,0,0-3.73-4.22,5.07,5.07,0,0,0,1.46-4.27,4.64,4.64,0,0,0-9.28,0,5.1,5.1,0,0,0,1.46,4.27,7.23,7.23,0,0,0-3.73,4.22,9,9,0,1,1,13.82,0ZM1761,899.05a9.55,9.55,0,0,0-2,0v-5h2Zm12-7h-26V880h26Z"/><path class="cls-3" d="M1733,914h-16a1,1,0,0,0,0,2h16a1,1,0,0,0,0-2Z"/><path class="cls-3" d="M1717,912h20a1,1,0,0,0,0-2h-20a1,1,0,0,0,0,2Z"/><path class="cls-3" d="M1725,893v-6a1,1,0,0,0-2,0v6a1,1,0,0,0,2,0Z"/><path class="cls-3" d="M1719,891v2a1,1,0,0,0,2,0v-2a1,1,0,0,0-2,0Z"/><path class="cls-3" d="M1729,893v-5a1,1,0,0,0-2,0v5a1,1,0,0,0,2,0Z"/><path class="cls-3" d="M1733,893V883a1,1,0,0,0-2,0v10a1,1,0,0,0,2,0Z"/><path class="cls-3" d="M1753.29,882.29l-3,3a1,1,0,0,0,0,1.41h0l3,3a1,1,0,0,0,1.42-1.42h0l-2.3-2.29,2.3-2.29a1,1,0,0,0-1.42-1.42Z"/><path class="cls-3" d="M1766.71,889.71l3-3a1,1,0,0,0,0-1.41h0l-3-3a1,1,0,0,0-1.42,1.42l2.3,2.29-2.3,2.29a1,1,0,0,0,1.42,1.42Z"/><path class="cls-3" d="M1757.17,888.45a1,1,0,0,0,.29,1.39,1,1,0,0,0,.54.16c.73,0,.46.12,4.83-6.45a1,1,0,0,0-1.66-1.1Z"/></g><g id="User_Interface" data-name="User Interface"><path class="cls-3" d="M1512.56,391h-1V355a4,4,0,0,0-4-4h-5V338a1,1,0,0,0-1-1h-36a1,1,0,0,0-1,1v13h-5a4,4,0,0,0-4,4v36h-1a3,3,0,0,0-3,3v2a5,5,0,0,0,5,5h54a5,5,0,0,0,5-5v-2A3,3,0,0,0,1512.56,391Zm-51-4V357h3v30Zm5-42h34v42h-34Zm36,12h3v30h-3Zm-36-18h34v4h-34Zm-9,16a2,2,0,0,1,2-2h5v2h-4a1,1,0,0,0-1,1v32a1,1,0,0,0,1,1h46a1,1,0,0,0,1-1V356a1,1,0,0,0-1-1h-4v-2h5a2,2,0,0,1,2,2v36h-52Zm34.13,38-.67,1H1476.1l-.67-1Zm21.87,3a3,3,0,0,1-3,3h-54a3,3,0,0,1-3-3v-2a1,1,0,0,1,1-1H1473l1.71,2.55c.42.64-.41.45,16.83.45.69,0,.74-.3,2.54-3h18.46a1,1,0,0,1,1,1Z"/><path class="cls-3" d="M1469.56,340a1,1,0,1,0,1,1A1,1,0,0,0,1469.56,340Z"/><path class="cls-3" d="M1473.56,340a1,1,0,1,0,1,1A1,1,0,0,0,1473.56,340Z"/><path class="cls-3" d="M1477.56,340a1,1,0,1,0,1,1A1,1,0,0,0,1477.56,340Z"/><path class="cls-3" d="M1496.56,347h-26a1,1,0,0,0-1,1v10a1,1,0,0,0,1,1h26a1,1,0,0,0,1-1V348A1,1,0,0,0,1496.56,347Zm-1,10h-24v-8h24Z"/><path class="cls-3" d="M1483.56,369a4,4,0,1,0-4-4A4,4,0,0,0,1483.56,369Zm0-6a2,2,0,1,1-2,2A2,2,0,0,1,1483.56,363Z"/><path class="cls-3" d="M1493.56,361a4,4,0,1,0,4,4A4,4,0,0,0,1493.56,361Zm0,6a2,2,0,1,1,2-2A2,2,0,0,1,1493.56,367Z"/><path class="cls-3" d="M1473.56,369a4,4,0,1,0-4-4A4,4,0,0,0,1473.56,369Zm0-6a2,2,0,1,1-2,2A2,2,0,0,1,1473.56,363Z"/><path class="cls-3" d="M1470.56,373h6a1,1,0,0,0,0-2h-6a1,1,0,0,0,0,2Z"/><path class="cls-3" d="M1470.56,377h6a1,1,0,0,0,0-2h-6a1,1,0,0,0,0,2Z"/><path class="cls-3" d="M1480.56,373h6a1,1,0,0,0,0-2h-6a1,1,0,0,0,0,2Z"/><path class="cls-3" d="M1480.56,377h6a1,1,0,0,0,0-2h-6a1,1,0,0,0,0,2Z"/><path class="cls-3" d="M1496.56,371h-6a1,1,0,0,0,0,2h6a1,1,0,0,0,0-2Z"/><path class="cls-3" d="M1496.56,375h-6a1,1,0,0,0,0,2h6a1,1,0,0,0,0-2Z"/><path class="cls-3" d="M1496.56,379h-26a1,1,0,0,0-1,1v4a1,1,0,0,0,1,1h26a1,1,0,0,0,1-1v-4A1,1,0,0,0,1496.56,379Zm-1,4h-24v-2h24Z"/></g><g id="User_Security" data-name="User Security"><path class="cls-3" d="M763,594a1,1,0,1,0-1-1A1,1,0,0,0,763,594Z"/><path class="cls-3" d="M771,594a1,1,0,1,0-1-1A1,1,0,0,0,771,594Z"/><path class="cls-3" d="M764.23,635.13c-.3.18-.23.21-.23-.13a1,1,0,0,0-2,0c0,.35.06.3-.23.13a1,1,0,0,0-1,1.74c.3.17.29.09,0,.26a1,1,0,0,0,1,1.74c.3-.18.23-.21.23.13a1,1,0,0,0,2,0c0-.35-.06-.3.23-.13a1,1,0,1,0,1-1.74c-.3-.17-.29-.09,0-.26a1,1,0,1,0-1-1.74Z"/><path class="cls-3" d="M772.23,635.13c-.3.18-.23.21-.23-.13a1,1,0,0,0-2,0c0,.35.06.3-.23.13a1,1,0,0,0-1,1.74c.3.17.29.09,0,.26a1,1,0,0,0,1,1.74c.3-.18.23-.21.23.13a1,1,0,0,0,2,0c0-.35-.06-.3.23-.13a1,1,0,1,0,1-1.74c-.3-.17-.29-.09,0-.26a1,1,0,1,0-1-1.74Z"/><path class="cls-3" d="M780.23,635.13c-.3.18-.23.21-.23-.13a1,1,0,0,0-2,0c0,.35.06.3-.23.13a1,1,0,0,0-1,1.74c.3.17.29.09,0,.26a1,1,0,0,0,1,1.74c.3-.18.23-.21.23.13a1,1,0,0,0,2,0c0-.35-.06-.3.23-.13a1,1,0,1,0,1-1.74c-.3-.17-.29-.09,0-.26a1,1,0,1,0-1-1.74Z"/><path class="cls-3" d="M788.23,635.13c-.3.18-.23.21-.23-.13a1,1,0,0,0-2,0c0,.35.06.3-.23.13a1,1,0,0,0-1,1.74c.3.17.29.09,0,.26a1,1,0,0,0,1,1.74c.3-.18.23-.21.23.13a1,1,0,0,0,2,0c0-.35-.06-.3.23-.13a1,1,0,1,0,1-1.74c-.3-.17-.29-.09,0-.26a1,1,0,1,0-1-1.74Z"/><path class="cls-3" d="M756.23,635.13c-.3.18-.23.21-.23-.13a1,1,0,0,0-2,0c0,.35.06.3-.23.13a1,1,0,0,0-1,1.74c.3.17.29.09,0,.26a1,1,0,0,0,1,1.74c.3-.18.23-.21.23.13a1,1,0,0,0,2,0c0-.35-.06-.3.23-.13a1,1,0,1,0,1-1.74c-.3-.17-.29-.09,0-.26a1,1,0,1,0-1-1.74Z"/><path class="cls-3" d="M748.23,635.13c-.3.18-.23.21-.23-.13a1,1,0,0,0-2,0c0,.35.06.3-.23.13a1,1,0,0,0-1,1.74c.3.17.29.09,0,.26a1,1,0,0,0,1,1.74c.3-.18.23-.21.23.13a1,1,0,0,0,2,0c0-.35-.06-.3.23-.13a1,1,0,1,0,1-1.74c-.3-.17-.29-.09,0-.26a1,1,0,1,0-1-1.74Z"/><path class="cls-3" d="M792,630h-5V594a5,5,0,0,0-5-5H752a5,5,0,0,0-5,5v36h-5a3,3,0,0,0-3,3v8a3,3,0,0,0,3,3h5v4a5,5,0,0,0,5,5h30a5,5,0,0,0,5-5v-4h5a3,3,0,0,0,3-3v-8A3,3,0,0,0,792,630Zm-43-36a3,3,0,0,1,3-3h30a3,3,0,0,1,3,3v36h-2V594a1,1,0,0,0-1-1h-7a1,1,0,0,0-1,1,1,1,0,0,1-1,1c-13,0-12.29.13-12.71-.31A.94.94,0,0,1,760,594a1,1,0,0,0-1-1h-7a1,1,0,0,0-1,1v36h-2Zm21.5,36-2.7-3.6a1,1,0,0,0-1.4-.2,1,1,0,0,0-.2.2l-2.7,3.6H753V595h5.17a3,3,0,0,0,2.83,2h12a3,3,0,0,0,2.83-2H781v35ZM785,648a3,3,0,0,1-3,3H752a3,3,0,0,1-3-3v-4h2v4a1,1,0,0,0,1,1h30a1,1,0,0,0,1-1v-4h2Zm-4-4v3H753v-3Zm12-3a1,1,0,0,1-1,1H742a1,1,0,0,1-1-1v-8a1,1,0,0,1,1-1h22c.68,0,.72-.29,3-3.33,2.32,3.08,2.33,3.33,3,3.33h22a1,1,0,0,1,1,1Z"/><path class="cls-3" d="M775,609h-2v-2a6,6,0,0,0-12,0v2h-2a1,1,0,0,0-1,1v12a1,1,0,0,0,1,1h16a1,1,0,0,0,1-1V610A1,1,0,0,0,775,609Zm-12-2a4,4,0,0,1,8,0v2h-8Zm11,14H760V611h14Z"/><path class="cls-3" d="M767,613a2,2,0,0,0-1,3.72V618a1,1,0,0,0,2,0v-1.28a2,2,0,0,0-1-3.72Z"/></g><g id="Warning"><path class="cls-3" d="M178.31,455h-1V419a4,4,0,0,0-4-4h-5V402a1,1,0,0,0-1-1h-36a1,1,0,0,0-1,1v13h-5a4,4,0,0,0-4,4v36h-1a3,3,0,0,0-3,3v2a5,5,0,0,0,5,5h54a5,5,0,0,0,5-5v-2A3,3,0,0,0,178.31,455Zm-51-4V421h3v30Zm5-42h34v42h-34Zm36,12h3v30h-3Zm-36-18h34v4h-34Zm-9,16a2,2,0,0,1,2-2h5v2h-4a1,1,0,0,0-1,1v32a1,1,0,0,0,1,1h46a1,1,0,0,0,1-1V420a1,1,0,0,0-1-1h-4v-2h5a2,2,0,0,1,2,2v36h-52Zm34.13,38-.67,1H141.85l-.67-1Zm21.87,3a3,3,0,0,1-3,3h-54a3,3,0,0,1-3-3v-2a1,1,0,0,1,1-1h18.46l1.71,2.55c.42.64-.45.45,16.83.45.69,0,.74-.31,2.54-3h18.46a1,1,0,0,1,1,1Z"/><path class="cls-3" d="M135.31,404a1,1,0,1,0,1,1A1,1,0,0,0,135.31,404Z"/><path class="cls-3" d="M139.31,404a1,1,0,1,0,1,1A1,1,0,0,0,139.31,404Z"/><path class="cls-3" d="M143.31,404a1,1,0,1,0,1,1A1,1,0,0,0,143.31,404Z"/><path class="cls-3" d="M151.68,419.33a2.79,2.79,0,0,0-3.83-.92,2.86,2.86,0,0,0-.91.92c-12.15,19.94-11.63,18.76-11.63,19.87a2.8,2.8,0,0,0,2.8,2.8h22.4a2.8,2.8,0,0,0,2.79-2.81,2.84,2.84,0,0,0-.4-1.44ZM160.51,440h-22.4a.8.8,0,0,1-.8-.8c0-.33-.65.84,11.33-18.83a.8.8,0,0,1,1.34,0c12,19.68,11.33,18.5,11.33,18.83A.8.8,0,0,1,160.51,440Z"/><path class="cls-3" d="M148.31,426v8a1,1,0,0,0,2,0v-8a1,1,0,0,0-2,0Z"/><path class="cls-3" d="M149.31,436a1,1,0,1,0,1,1A1,1,0,0,0,149.31,436Z"/></g><g id="Registration"><path class="cls-3" d="M490.86,319.26l-.89.45-16.5-32a4,4,0,0,0-5.39-1.72l-4.45,2.29-6-11.55a1,1,0,0,0-1.34-.43l-32,16.5a1,1,0,0,0-.43,1.35l6,11.55-4.44,2.3a4,4,0,0,0-1.72,5.38l16.5,32-.89.46a3,3,0,0,0-1.29,4l.92,1.78a5,5,0,0,0,6.74,2.15l48-24.76a5,5,0,0,0,2.15-6.74l-.92-1.77A3,3,0,0,0,490.86,319.26ZM443.7,339.08,430,312.42l2.66-1.37,13.76,26.66Zm-14.81-39.62,30.21-15.58,19.26,37.32-30.22,15.59Zm37.49-5.84,2.67-1.37,13.75,26.66-2.66,1.38Zm-40.24.51,30.21-15.59,1.84,3.56L428,297.69Zm-.67,18.35a2,2,0,0,1,.87-2.7l4.44-2.29.92,1.78-3.56,1.83a1,1,0,0,0-.43,1.35l14.67,28.44a1,1,0,0,0,1.35.43l40.88-21.09a1,1,0,0,0,.43-1.35l-14.67-28.44A1,1,0,0,0,469,290l-3.55,1.84-.92-1.78,4.44-2.29a2,2,0,0,1,2.7.86l16.5,32L442,344.47Zm47.76,18.12-.14,1.2-13.26,6.84-1.05-.58ZM494,323.24a3,3,0,0,1-1.29,4l-48,24.76a3,3,0,0,1-4-1.29L439.8,349a1,1,0,0,1,.43-1.35l16.41-8.46,2.68,1.48c.67.38-.15.59,15.17-7.31.61-.32.52-.61.88-3.83L491.78,321a1,1,0,0,1,1.34.43Z"/><path class="cls-3" d="M429.26,293.65a1,1,0,1,0,1.35.43A1,1,0,0,0,429.26,293.65Z"/><path class="cls-3" d="M432.82,291.81a1,1,0,0,0,.91,1.78,1,1,0,0,0-.91-1.78Z"/><path class="cls-3" d="M436.37,290a1,1,0,1,0,1.35.43A1,1,0,0,0,436.37,290Z"/><path class="cls-3" d="M447.35,313.9a10.64,10.64,0,0,0,4.24.19,11,11,0,0,0,7.53-4.78c6.28-9.44-4.2-21-14.21-15.86a11,11,0,0,0,2.44,20.45Zm-.57-11.08-.42-.81a2.64,2.64,0,1,1,4.69-2.42l.42.81a2.64,2.64,0,0,1-4.69,2.42Zm11.09,4.67a9,9,0,0,1-9,4.66c-.36,0-.25.07-.45-.89a5.31,5.31,0,0,1,8.94-4.61C458.08,307.33,458,307.17,457.87,307.49Zm-12-12.26a9,9,0,0,1,12.91,9.95,7.33,7.33,0,0,0-5.26-2,5.06,5.06,0,0,0-.65-4.48,4.64,4.64,0,0,0-8.25,4.26c.67,1.29,1.32,2.55,3.27,3.12a7.31,7.31,0,0,0-1.39,5.46,9,9,0,0,1-.63-16.28Z"/><path class="cls-3" d="M465.69,309.73l-19.55,10.09a1,1,0,0,0-.43,1.35l1.83,3.55a1,1,0,0,0,1.35.43l19.55-10.08a1,1,0,0,0,.43-1.35L467,310.16A1,1,0,0,0,465.69,309.73Zm.95,4-17.78,9.17-.91-1.78L465.72,312Z"/><path class="cls-3" d="M469.36,316.84l-19.55,10.09a1,1,0,0,0-.43,1.35l1.83,3.55a1,1,0,0,0,1.35.43l19.55-10.08a1,1,0,0,0,.43-1.35l-1.83-3.56A1,1,0,0,0,469.36,316.84Zm.95,4L452.53,330l-.92-1.78,17.78-9.17Z"/></g><g id="SaaS"><path class="cls-3" d="M707.31,956.44a5.67,5.67,0,1,0,5.67,5.67h0A5.68,5.68,0,0,0,707.31,956.44Zm0,9.34a3.67,3.67,0,1,1,3.67-3.67h0A3.68,3.68,0,0,1,707.31,965.78Z"/><path class="cls-3" d="M737.31,991.29v-8.18a1,1,0,0,0-1-1h-17V971.33l1.28-2.22h4.72a9,9,0,0,0,3-17.48,8,8,0,0,0-8.45-7.52h-.09a15,15,0,0,0-29.46,3,11,11,0,0,0,1,22H694l1.28,2.22v10.78h-17a1,1,0,0,0-1,1v8.18a3,3,0,1,0,2,0v-7.18h17a1,1,0,0,0,1-1V972.5l2.21-1.27c.25.21.52.42.79.61v15.27h-7a1,1,0,0,0-1,1v3.18a3,3,0,1,0,2,0v-2.18h7a1,1,0,0,0,1-1V973c.33.15.66.29,1,.41v2.69a1,1,0,0,0,1,1h2v14.18a3,3,0,1,0,2,0V977.11h2a1,1,0,0,0,1-1v-2.69c.34-.12.67-.26,1-.41v15.1a1,1,0,0,0,1,1h7v2.18a3,3,0,1,0,2,0v-3.18a1,1,0,0,0-1-1h-7V971.84c.27-.19.54-.4.79-.61l2.21,1.27v10.61a1,1,0,0,0,1,1h17v7.18a3,3,0,1,0,2,0Zm-59,3.82a1,1,0,1,1,1-1A1,1,0,0,1,678.31,995.11Zm15,0a1,1,0,1,1,1-1A1,1,0,0,1,693.31,995.11Zm14,0a1,1,0,1,1,1-1A1,1,0,0,1,707.31,995.11Zm14,0a1,1,0,1,1,1-1A1,1,0,0,1,721.31,995.11Zm-30-28a9,9,0,0,1,0-18,1,1,0,0,0,1-1A13,13,0,0,1,718,945.43a1,1,0,0,0,1.15.79,6,6,0,0,1,7,4.76,6.5,6.5,0,0,1,.11,1.24,1,1,0,0,0,.74,1.16,7,7,0,0,1-1.74,13.73c-4.11,0-3.59,0-3.51-.1a1,1,0,0,0-.37-1.36l-2.33-1.35a11.52,11.52,0,0,0,0-4.38l2.33-1.35a1,1,0,0,0,.37-1.36l-3-5.2a1,1,0,0,0-1.37-.36h0L715.1,953a12.39,12.39,0,0,0-3.79-2.19v-2.69a1,1,0,0,0-1-1h-6a1,1,0,0,0-1,1v2.69a12.27,12.27,0,0,0-3.79,2.19l-2.33-1.34a1,1,0,0,0-1.37.36h0c-4,6.91-4.22,5.65-.3,7.91a11.52,11.52,0,0,0,0,4.38c-2.49,1.44-2.66,1.43-2.8,2C692.44,967.3,693.84,967.11,691.31,967.11Zm23,2.17c-3,2.83-5,1.91-5,3.41v2.42h-4c0-2.42.19-3.13-.73-3.39-4-1.12-4.13-3.34-5.43-2.59l-2.1,1.21-2-3.46c2.11-1.22,2.81-1.4,2.57-2.33a9.83,9.83,0,0,1,0-4.88c.25-1-.66-1.23-2.57-2.33l2-3.46,2.1,1.23c1.28.74,1.54-1.49,5.43-2.59.92-.26.73-1,.73-3.39h4v2.42c0,1.47,2.08.61,5,3.41.67.65,1.12.2,3.3-1.06l2,3.46c-4,2.24-2.3.95-2.3,4.75s-1.66,2.5,2.26,4.77l-2,3.46C715.47,969.11,715,968.62,714.31,969.28Zm22,25.83a1,1,0,1,1,1-1A1,1,0,0,1,736.31,995.11Z"/></g><g id="Software_Compenies" data-name="Software Compenies"><path class="cls-3" d="M408.11,732.77l-.8-1.83a1,1,0,0,0-1.32-.52,1,1,0,0,0-.51,1.32l.8,1.83a1,1,0,0,0,1.83-.8Z"/><path class="cls-3" d="M412.69,730.76l-.81-1.84a1,1,0,0,0-1.83.81l.81,1.83a1,1,0,0,0,1.83-.8Z"/><path class="cls-3" d="M403.53,734.78l-.8-1.83a1,1,0,0,0-1.32-.52,1,1,0,0,0-.51,1.32l.8,1.83a1,1,0,1,0,1.83-.8Z"/><path class="cls-3" d="M410.93,739.18l-.81-1.84a1,1,0,0,0-1.83.81l.81,1.83a1,1,0,0,0,1.31.51A1,1,0,0,0,410.93,739.18Z"/><path class="cls-3" d="M415.5,737.16l-.8-1.83a1,1,0,0,0-1.83.81l.8,1.83a1,1,0,0,0,1.32.51A1,1,0,0,0,415.5,737.16Z"/><path class="cls-3" d="M406.35,741.19l-.81-1.83a1,1,0,1,0-1.83.8l.81,1.83a1,1,0,0,0,1.83-.8Z"/><path class="cls-3" d="M410.93,755.87l-1.54,4a1,1,0,0,0,.57,1.29h0l4,1.54a1,1,0,1,0,.73-1.87h0l-3-1.18,1.18-3a1,1,0,1,0-1.87-.73Z"/><path class="cls-3" d="M421.39,751.28a1,1,0,1,0-.73,1.87l3,1.17-1.19,3a1,1,0,0,0,1.34,1.28c.5-.22.39-.17,2.07-4.5a1,1,0,0,0-.56-1.3h0Z"/><path class="cls-3" d="M416.36,753.91l.58,6.3a1,1,0,0,0,1.09.91,1.25,1.25,0,0,0,.32-.08c.91-.4.63-.63.06-7.32a1,1,0,1,0-2.05.19Z"/><path class="cls-3" d="M393.42,749.05l4.58-2a1,1,0,1,0-.81-1.83l-4.57,2a1,1,0,1,0,.8,1.83Z"/><path class="cls-3" d="M395.43,753.63l4.58-2a1,1,0,0,0,.51-1.32,1,1,0,0,0-1.32-.51l-4.57,2a1,1,0,1,0,.8,1.83Z"/><path class="cls-3" d="M427.41,731.94l-4.58,2a1,1,0,0,0,.8,1.83l4.58-2a1,1,0,0,0-.8-1.83Z"/><path class="cls-3" d="M429.42,736.51l-4.58,2a1,1,0,0,0-.51,1.31,1,1,0,0,0,1.31.52l4.58-2a1,1,0,0,0-.8-1.84Z"/><path class="cls-3" d="M423.51,693.23l-56.76,24.94a1,1,0,0,0-.52,1.32l20.52,46.69a1,1,0,0,0,1.31.51l6.41-2.81,3.62,8.24-6.41,2.81a1,1,0,0,0-.51,1.32,1,1,0,0,0,1.32.52l56.76-24.94a1,1,0,0,0,.52-1.32,1,1,0,0,0-1.32-.51L442,752.81l-3.62-8.24,6.41-2.81a1,1,0,0,0,.51-1.32l-20.51-46.69A1,1,0,0,0,423.51,693.23Zm-55,26.37,54.93-24.13,2.41,5.49-54.93,24.13Zm20.19,26.08,10.07-4.42,4.12,9.36c-.2.21-.13.06-1.54,3.72l-4.67,2a1,1,0,0,0-.51,1.32,1,1,0,0,0,1.32.51l3-1.29c0,.93.82,1,3.34,2-.41,0-.11-.12-5.09,2.07a1,1,0,1,0,.8,1.83c5.07-2.23,4.58-2,4.84-2.19a13.1,13.1,0,0,0,.12,2.17l-3.25,1.43a1,1,0,0,0-.51,1.32l2,4.58-2.75,1.2ZM410.39,723l-12.82,5.63-.8-1.83,12.81-5.63Zm2.63,1,8.59,19.54-.81,2.16a15.18,15.18,0,0,0-3.69,0l-1.43-3.25a1,1,0,0,0-1.31-.52l-5.5,2.42a1,1,0,0,0-.51,1.31l1.43,3.25a15,15,0,0,0-2.52,2.7l-2.14-.87-8.59-19.54Zm-8.67,35.12c-.11-.12-.26-.17,0,0Zm.15,10.12-1.61-3.66c6-2.65,2.52-.6,3.54-7a1,1,0,0,0-.62-1.1l-3.12-1.2,1.45-3.73c6.2,2.42,2.28,1.32,7.46-2.46a1,1,0,0,0,.32-1.23l-1.33-3,3.67-1.61c2.65,6,.6,2.52,7,3.53a1,1,0,0,0,1.09-.62l1.21-3.12,3.73,1.46-1.22,3.11c-.52,1.32,1.33,1.13,3.68,4.35a1,1,0,0,0,1.23.32l3-1.33,1.61,3.66Zm23.69-20.66c.1-.26,0-.11,0,.06Zm9.27,6.19-2-4.58a1,1,0,0,0-1.32-.52l-3.25,1.43a14.15,14.15,0,0,0-1.52-1.58c.31-.07-.19.15,4.88-2.08a1,1,0,0,0,.52-1.32,1,1,0,0,0-1.32-.51c-4.95,2.18-4.73,2-5,2.35,1-2.64,1.47-3.19.82-3.8l3-1.3a1,1,0,0,0,.52-1.31,1,1,0,0,0-1.32-.52l-4.67,2c-3.65-1.42-3.49-1.39-3.77-1.38l-4.11-9.35L429,728l11.26,25.64Zm.15-12.09-7.23-16.48a1,1,0,0,0-1.32-.51l-11,4.83-3.62-8.24a1,1,0,0,0-1.32-.52l-.91.4L411,719.48a1,1,0,0,0-1.32-.52l-14.64,6.44a1,1,0,0,0-.52,1.32l1.21,2.74-.92.41a1,1,0,0,0-.51,1.31l3.62,8.24-11,4.83a1,1,0,0,0-.51,1.32l7.24,16.48-5.5,2.41-16.48-37.54,54.93-24.13,16.49,37.54Z"/><path class="cls-3" d="M372.93,719.82a1,1,0,1,0,1.32.51A1,1,0,0,0,372.93,719.82Z"/><path class="cls-3" d="M377.51,717.81a1,1,0,1,0,1.32.51A1,1,0,0,0,377.51,717.81Z"/><path class="cls-3" d="M382.09,715.8a1,1,0,0,0,.8,1.83,1,1,0,1,0-.8-1.83Z"/></g><g id="Database"><path class="cls-3" d="M1111.14,731a1,1,0,0,0,2,0,1,1,0,0,0-2,0Z"/><path class="cls-3" d="M1116.14,732a1,1,0,1,0-1-1A1,1,0,0,0,1116.14,732Z"/><path class="cls-3" d="M1108.14,730a1,1,0,1,0,1,1A1,1,0,0,0,1108.14,730Z"/><path class="cls-3" d="M1112.14,738a1,1,0,1,0,1,1A1,1,0,0,0,1112.14,738Z"/><path class="cls-3" d="M1116.14,738a1,1,0,1,0,1,1A1,1,0,0,0,1116.14,738Z"/><path class="cls-3" d="M1108.14,738a1,1,0,1,0,1,1A1,1,0,0,0,1108.14,738Z"/><path class="cls-3" d="M1111.14,747a1,1,0,0,0,2,0,1,1,0,0,0-2,0Z"/><path class="cls-3" d="M1116.14,748a1,1,0,1,0-1-1A1,1,0,0,0,1116.14,748Z"/><path class="cls-3" d="M1108.14,746a1,1,0,1,0,1,1A1,1,0,0,0,1108.14,746Z"/><path class="cls-3" d="M1141.14,772h-1V736a4,4,0,0,0-4-4h-7v-9c0-6.65-34-6.66-34,0v9h-7a4,4,0,0,0-4,4v36h-1a3,3,0,0,0-3,3v2a5,5,0,0,0,5,5h54a5,5,0,0,0,5-5v-2A3,3,0,0,0,1141.14,772Zm-14-25c0,.87-5.26,3-15,3s-15-2.13-15-3v-5.46c6,3.25,24,3.26,30,0Zm-15,14a1,1,0,0,1,0,2,1,1,0,0,1,0-2Zm15-22c0,.87-5.26,3-15,3s-15-2.13-15-3v-5.46c6,3.25,24,3.26,30,0Zm0-8c0,.87-5.26,3-15,3s-15-2.13-15-3v-5.46c6,3.25,24,3.26,30,0Zm-32,16c0,2.81,5.63,4.15,11,4.69V755h-10a1,1,0,0,0-1,1v3.18a3,3,0,1,0,2,0V757h10a1,1,0,0,0,1-1v-4.14c1.06.07,2.07.11,3,.13v7.19a3,3,0,1,0,2,0V752c.93,0,1.94-.06,3-.13V756a1,1,0,0,0,1,1h10v2.18a3,3,0,1,0,2,0V756a1,1,0,0,0-1-1h-10v-3.31c5.37-.54,11-1.88,11-4.69v-9h5v30h-44V738h5Zm1,14a1,1,0,0,1,0,2,1,1,0,0,1,0-2Zm32,0a1,1,0,0,1,0,2,1,1,0,0,1,0-2Zm-16-41c9.74,0,15,2.13,15,3s-5.26,3-15,3-15-2.13-15-3S1102.4,720,1112.14,720Zm-26,16a2,2,0,0,1,2-2h7v2h-6a1,1,0,0,0-1,1v32a1,1,0,0,0,1,1h46a1,1,0,0,0,1-1V737a1,1,0,0,0-1-1h-6v-2h7a2,2,0,0,1,2,2v36h-52Zm34.13,38-.67,1h-14.92l-.67-1Zm21.87,3a3,3,0,0,1-3,3h-54a3,3,0,0,1-3-3v-2a1,1,0,0,1,1-1h18.46l1.71,2.55c.42.64-.41.45,16.83.45.69,0,.74-.3,2.54-3h18.46a1,1,0,0,1,1,1Z"/></g><g id="Development"><path class="cls-3" d="M1415,899h-28v-3a1,1,0,0,0-2,0v3h-32a1,1,0,0,0-1,1v54a1,1,0,0,0,1,1h32v3a1,1,0,0,0,2,0v-3h28a1,1,0,0,0,1-1V900A1,1,0,0,0,1415,899Zm-1,2v6h-27v-6Zm-60,0h31v6h-31Zm0,52V909h31v44Zm33,0V909h27v44Z"/><path class="cls-3" d="M1358,903a1,1,0,1,0,1,1A1,1,0,0,0,1358,903Z"/><path class="cls-3" d="M1363,903a1,1,0,1,0,1,1A1,1,0,0,0,1363,903Z"/><path class="cls-3" d="M1368,903a1,1,0,1,0,1,1A1,1,0,0,0,1368,903Z"/><path class="cls-3" d="M1381,912h-23a1,1,0,0,0-1,1v9a1,1,0,0,0,1,1h23a1,1,0,0,0,1-1v-9A1,1,0,0,0,1381,912Zm-1,9h-21v-7h21Z"/><path class="cls-3" d="M1378.5,926a3.5,3.5,0,1,0,3.5,3.5A3.5,3.5,0,0,0,1378.5,926Zm0,5a1.5,1.5,0,1,1,1.5-1.5A1.5,1.5,0,0,1,1378.5,931Z"/><path class="cls-3" d="M1369.5,933a3.5,3.5,0,1,0-3.5-3.5A3.5,3.5,0,0,0,1369.5,933Zm0-5a1.5,1.5,0,1,1-1.5,1.5A1.5,1.5,0,0,1,1369.5,928Z"/><path class="cls-3" d="M1360.5,933a3.5,3.5,0,1,0-3.5-3.5A3.5,3.5,0,0,0,1360.5,933Zm0-5a1.5,1.5,0,1,1-1.5,1.5A1.5,1.5,0,0,1,1360.5,928Z"/><path class="cls-3" d="M1381,935h-5a1,1,0,0,0,0,2h5a1,1,0,0,0,0-2Z"/><path class="cls-3" d="M1381,939h-5a1,1,0,0,0,0,2h5a1,1,0,0,0,0-2Z"/><path class="cls-3" d="M1367,937h5a1,1,0,0,0,0-2h-5a1,1,0,0,0,0,2Z"/><path class="cls-3" d="M1367,941h5a1,1,0,0,0,0-2h-5a1,1,0,0,0,0,2Z"/><path class="cls-3" d="M1358,937h5a1,1,0,0,0,0-2h-5a1,1,0,0,0,0,2Z"/><path class="cls-3" d="M1358,941h5a1,1,0,0,0,0-2h-5a1,1,0,0,0,0,2Z"/><path class="cls-3" d="M1381,944h-23a1,1,0,0,0-1,1v4a1,1,0,0,0,1,1h23a1,1,0,0,0,1-1v-4A1,1,0,0,0,1381,944Zm-1,4h-21v-2h21Z"/><path class="cls-3" d="M1393.29,921.71a1,1,0,0,0,1.42-1.42h0l-3.3-3.29,3.3-3.29a1,1,0,0,0-1.42-1.42h0l-4,4a1,1,0,0,0,0,1.41h0Z"/><path class="cls-3" d="M1407.71,912.29a1,1,0,0,0-1.42,1.42l3.3,3.29-3.3,3.29a1,1,0,0,0,0,1.41,1,1,0,0,0,.72.3c.56,0,.3.12,4.71-4.29a1,1,0,0,0,0-1.41h0Z"/><path class="cls-3" d="M1398.85,921.53l5-8a1,1,0,1,0-1.7-1.06l-5,8a1,1,0,0,0,1.7,1.06Z"/><path class="cls-3" d="M1411,926h-21a1,1,0,0,0,0,2h21a1,1,0,0,0,0-2Z"/><path class="cls-3" d="M1390,933h14a1,1,0,0,0,0-2h-14a1,1,0,0,0,0,2Z"/><path class="cls-3" d="M1390,938h18a1,1,0,0,0,0-2h-18a1,1,0,0,0,0,2Z"/><path class="cls-3" d="M1411,941h-21a1,1,0,0,0,0,2h21a1,1,0,0,0,0-2Z"/><path class="cls-3" d="M1406,946h-16a1,1,0,0,0,0,2h16a1,1,0,0,0,0-2Z"/></g></g><circle class="cls-4" cx="60.68" cy="-27.42" r="315.5"/><path class="cls-5" d="M167.53,744.77c-2,8.83.66,18.2,5.33,26s11.23,14.17,17.8,20.39c14.43,13.68,27.85,26.11,43.64,38.1,6.52,4.94,15.14,10.13,22.16,14.33a20.2,20.2,0,0,0,7.18,3c2.59.38,5.5-.34,7.08-2.43,1.76-2.33,1.4-5.75-.07-8.28s-3.84-4.38-6.13-6.21c-19.18-15.36-36.65-34.18-44.6-57.43-2.22-6.49-3.66-13.23-5.82-19.74s-5.13-12.92-9.9-17.86-11.58-8.24-18.41-7.54C176.79,728,169.49,735.93,167.53,744.77Z"/><path class="cls-6" d="M400.08,918.24c-27.75-27.5-65.6-42.33-103.43-52.06-6.93-1.79-13.91-3.43-20.9-5a140.5,140.5,0,0,1-65.59-34.57c-.11-.11-.22-.22-.34-.32-19.78-18.67-36.7-40.74-59.43-55.69-32.21-21.2-75.18-25.52-110.52-10.09S-21.74,811-25.49,849.38c-4.48,46,21.22,91.88,12.32,137.21-11,56-74.6,106.49-75.24,163.52-.32,28.13,18.3,69,41.42,85s52.64,21.47,80.54,17.87c42.51-5.49,79.63-54.85,118.23-73.51a443.81,443.81,0,0,1,131.78-39.93c30.95-4.3,63.18-5.56,91.29-19.21,35.7-17.35,60.49-54.46,64.76-93.92S428.27,946.18,400.08,918.24Z"/><path class="cls-7" d="M1742.92,272.11c7.95-5,10.66,36.64,6.84,58.08s-30.59,15.39-23.18-14.55S1740.53,273.6,1742.92,272.11Z"/><path class="cls-8" d="M2055.45-42.82c-37.38-7.75-76.3.27-112.48,12.44-6.63,2.23-13.22,4.61-19.78,7.05A137.27,137.27,0,0,1,1851-16.71l-.45-.08c-26.16-4.76-51.78-13.83-78.36-14-37.69-.2-75.19,19.15-95.94,50.62S1652.7,94,1670.07,127.48c20.82,40.06,66.34,64,83.19,105.86,20.82,51.71-4.39,127,25.47,174.08,14.72,23.21,51.72,46.74,79.2,47.54s54.57-10.46,75.51-28.27c31.91-27.14,36-87.37,57.71-123.21a433.82,433.82,0,0,1,86.71-102.93c23.07-20,48.81-38.21,64.56-64.37,20-33.24,20.55-76.85,3-111.46S2093.44-34.95,2055.45-42.82Z"/><rect class="cls-9" x="1571" y="863.62" width="87.81" height="87.81" rx="43.9"/><rect class="cls-10" x="1595" y="888" width="156" height="156" rx="78"/><rect class="cls-11" x="1668" y="815" width="156" height="156" rx="78"/></g></svg>