<svg xmlns="http://www.w3.org/2000/svg" xmlns:xlink="http://www.w3.org/1999/xlink" viewBox="0 0 523.29 544.58"><defs><style>.cls-1{fill:url(#Degradado_sin_nombre_42);}.cls-2{fill:url(#Degradado_sin_nombre_42-2);}.cls-3{fill:url(#Degradado_sin_nombre_42-3);}.cls-4{fill:url(#Degradado_sin_nombre_42-4);}</style><linearGradient id="Degradado_sin_nombre_42" x1="233.01" y1="382.63" x2="418.08" y2="382.63" gradientTransform="matrix(0.84, -0.55, 0.55, 0.84, -42.36, 181.29)" gradientUnits="userSpaceOnUse"><stop offset="0" stop-color="#ff4a72"/><stop offset="1" stop-color="#007dff"/></linearGradient><linearGradient id="Degradado_sin_nombre_42-2" x1="-1041.2" y1="1534.73" x2="-1184.11" y2="1549.95" gradientTransform="translate(-1353.51 1156.4) rotate(-161.95)" xlink:href="#Degradado_sin_nombre_42"/><linearGradient id="Degradado_sin_nombre_42-3" x1="-179.71" y1="279.29" x2="-128.06" y2="436.65" gradientTransform="matrix(0.72, -0.69, 0.69, 0.72, -47.57, 37.41)" xlink:href="#Degradado_sin_nombre_42"/><linearGradient id="Degradado_sin_nombre_42-4" x1="1.99" y1="13.64" x2="328.88" y2="411.64" xlink:href="#Degradado_sin_nombre_42"/></defs><title>curve top right</title><g id="Layer_2" data-name="Layer 2"><g id="Layer_1-2" data-name="Layer 1"><path class="cls-1" d="M503.59,266c-10.77-3.59-22.8-1.52-33.07,3.31s-19.12,12.19-27.73,19.58c-18.92,16.25-36.16,31.39-53.15,49.55-7,7.49-14.59,17.59-20.73,25.8-2,2.63-3.9,5.39-4.72,8.57s-.28,6.9,2.12,9.14c2.69,2.51,7,2.49,10.34,1s6-4.23,8.54-6.84c21.63-22,47.37-41.33,77.39-48.26,8.39-1.93,17-2.87,25.39-4.73s16.77-4.73,23.55-10.05,11.76-13.38,11.77-22C523.3,279.74,514.36,269.61,503.59,266Z"/><path class="cls-2" d="M113.81,28.52C116.9,36.8,124.05,43.07,132,46.94s16.75,5.63,25.45,7.23c19.11,3.51,36.73,6.56,56.05,8,8,.58,17.81.24,25.8-.06a19.47,19.47,0,0,0,7.5-1.34c2.33-1.06,4.32-3.2,4.5-5.75.21-2.86-1.91-5.46-4.46-6.75s-5.49-1.55-8.34-1.83c-23.89-2.36-48.23-8.48-67.13-23.3C166.09,19,161.32,14.22,156.07,10S145,2.18,138.45.67,124.58.09,119.36,4.3C112.47,9.86,110.71,20.23,113.81,28.52Z"/><path class="cls-3" d="M84.24,361.69c8-5,10.66,36.64,6.84,58.08s-30.6,15.39-23.19-14.55S81.84,363.19,84.24,361.69Z"/><path class="cls-4" d="M396.77,46.76C359.39,39,320.47,47,284.29,59.2c-6.64,2.24-13.23,4.61-19.79,7a137.22,137.22,0,0,1-72.15,6.62l-.45-.08C165.74,68,140.12,59,113.53,58.82,75.85,58.61,38.34,78,17.6,109.43S-6,183.62,11.39,217.06c20.81,40.06,66.34,64,83.19,105.86,20.81,51.72-4.39,127,25.46,174.08,14.73,23.21,51.73,46.74,79.21,47.54s54.57-10.45,75.5-28.26c31.91-27.15,36-87.37,57.72-123.22a433.59,433.59,0,0,1,86.71-102.93c23.06-20,48.8-38.21,64.56-64.37,20-33.23,20.55-76.84,3-111.46S434.76,54.63,396.77,46.76Z"/></g></g></svg>