<svg xmlns="http://www.w3.org/2000/svg" xmlns:xlink="http://www.w3.org/1999/xlink" viewBox="0 0 532.85 527"><defs><style>.cls-1{fill:url(#Degradado_sin_nombre_42);}.cls-2{fill:url(#Degradado_sin_nombre_42-2);}.cls-3{fill:url(#Degradado_sin_nombre_42-3);}.cls-4{fill:url(#Degradado_sin_nombre_42-4);}</style><linearGradient id="Degradado_sin_nombre_42" x1="279.31" y1="453.22" x2="468.67" y2="453.22" gradientUnits="userSpaceOnUse"><stop offset="0" stop-color="#ff4a72"/><stop offset="1" stop-color="#007dff"/></linearGradient><linearGradient id="Degradado_sin_nombre_42-2" x1="2645.18" y1="-1820.59" x2="2498.95" y2="-1805.02" gradientTransform="matrix(-0.63, -0.78, 0.78, -0.63, 3341.39, 923.51)" xlink:href="#Degradado_sin_nombre_42"/><linearGradient id="Degradado_sin_nombre_42-3" x1="-252.2" y1="-173.82" x2="-199.36" y2="-12.81" gradientTransform="translate(271.36 373.54) rotate(-10.99)" xlink:href="#Degradado_sin_nombre_42"/><linearGradient id="Degradado_sin_nombre_42-4" x1="42.93" y1="75.67" x2="377.4" y2="482.9" xlink:href="#Degradado_sin_nombre_42"/></defs><title>curve bottom left</title><g id="Layer_2" data-name="Layer 2"><g id="Layer_1-2" data-name="Layer 1"><path class="cls-1" d="M462,438.9c-7.24-9.08-18.71-14-30.22-15.6s-23.19-.21-34.71,1.33c-25.29,3.38-48.52,6.75-73.22,12.86-10.19,2.52-22.33,6.95-32.18,10.57-3.15,1.16-6.35,2.45-8.82,4.73s-4.1,5.76-3.28,9c.9,3.65,4.61,6,8.32,6.61s7.48-.3,11.14-1.11c30.8-6.77,63.68-9,93.31,1.77,8.27,3,16.16,7,24.41,10.11s17,5.29,25.8,4.51,17.56-4.92,22.37-12.3C471.21,461.65,469.19,448,462,438.9Z"/><path class="cls-2" d="M260.07,17.77c-2,8.83.66,18.2,5.33,26s11.23,14.17,17.8,20.39c14.43,13.68,27.85,26.11,43.64,38.1,6.52,4.94,15.14,10.13,22.16,14.33a20.12,20.12,0,0,0,7.18,3c2.59.38,5.5-.34,7.08-2.43,1.76-2.33,1.4-5.75-.07-8.28s-3.85-4.38-6.13-6.21c-19.18-15.36-36.65-34.18-44.6-57.43-2.22-6.49-3.66-13.23-5.82-19.74s-5.13-12.92-9.9-17.86S285.16-.61,278.33.09C269.33,1,262,8.93,260.07,17.77Z"/><path class="cls-3" d="M48.88,287.08c9.59.18-11.29,37.37-26.53,53.63s-34.82-3.86-11.77-25.41S46,287,48.88,287.08Z"/><path class="cls-4" d="M492.62,191.24c-27.75-27.5-65.6-42.33-103.43-52.06-6.93-1.79-13.91-3.43-20.9-5A140.5,140.5,0,0,1,302.7,99.62c-.11-.11-.22-.22-.34-.32-19.78-18.67-36.7-40.74-59.43-55.69-32.21-21.2-75.18-25.52-110.52-10.09S70.8,84,67.05,122.38c-4.48,46,21.22,91.88,12.32,137.21-11,56-74.6,106.49-75.24,163.52-.32,28.13,18.3,68.95,41.42,85s52.64,21.47,80.54,17.87c42.51-5.49,79.63-54.85,118.23-73.51A443.81,443.81,0,0,1,376.1,412.5c30.95-4.3,63.18-5.56,91.28-19.21,35.71-17.35,60.49-54.46,64.77-93.92S520.81,219.18,492.62,191.24Z"/></g></g></svg>